<?xml version="1.0" encoding="utf-8"?><svg xmlns="http://www.w3.org/2000/svg" xmlns:xlink="http://www.w3.org/1999/xlink"><symbol viewBox="0 0 42 37.754" id="cucumber"><g fill-rule="evenodd" clip-rule="evenodd"><path d="M1.784 16.222a80.46 80.46 0 0 1 1.367-.861c.146-.091.306-.24.454-.234.832.032 1.333.529 1.428 1.508.286-.072.649-.056.798-.226.188-.213.226-.575.28-.881.037-.212-.01-.438-.018-.658l-.195.016-.353.912c-.855-.144-.319-1.49-1.321-1.215-.548.15-1.297-.487-1.648.64l-.13-.885-.221.013c.026.271.07.541.072.811a.771.771 0 0 1-.119.427c-.034.05-.217-.003-.333-.009-.113-.005-.266-.06-.332-.006-.354.284-.547.103-.75-.194-.15-.221-.347-.412-.522-.615l-.15.128 1.02 1.808c.264-.19.463-.344.673-.479zm7.383 11.427c.667-.776 1.429-.684 2.338-.298.052-.583-.111-.829-.687-.683a6.298 6.298 0 0 1-.988.148c-.376.035-.638-.047-.779-.223a.631.631 0 0 0 .113-.492.863.863 0 0 0-.147-.354c.043-.127.089-.255.128-.365-.177-.143-.32-.352-.462-.351-.207.003-.412.155-.617.243.015.035.022.066.034.099-.196.065-.398.124-.516.258a9.699 9.699 0 0 0-1.064 1.452c-.187.314-.05.648.258.868.294.21.694.175.942-.103.18-.203.313-.448.485-.66.018-.021.042-.041.062-.062.012.062.024.126.037.185.101.453.586.662.863.338zm13.494-6.175c-.09-.453-.254-.871-.78-.447-.622.503-1.088.429-1.587-.209l.132 1.451-.243.439c.554-.082 1.108-.167 1.498-.227-.11-.349-.11-.349.98-1.007zm-4.319 2.463l-1.421-1.393-.248.275 1.469 1.338.2-.22zm-1.91 4.177c-.165.23-.325.46-.493.684-.158.211-.325.416-.488.623 1.136-.383 1.402-.792.981-1.307zm19.44-4.885c-.58-.075-.832.081-.708.661.069.323.095.66.113.992.042.769-.368 1.055-1.097.773a41.076 41.076 0 0 1-.362-.143c-.149.172-.363.307-.366.449-.006.206.139.416.22.626.671-.271 1.088.097 1.468.573.033.043.152.017.369.031l-.637-.637c.357-.055.603-.086.845-.131.453-.084.679-.561.367-.85-.751-.693-.631-1.451-.212-2.344zm5.617-3.22l.488-.755c-1.67.292-1.932.562-1.762 1.668.556-.159 1.109-.317 1.785-.513-.298-.234-.427-.336-.511-.4zm-14.991 1.769c-.325.071-.618.295-.923.461l.109.18 1.335.145c-.241-.376-.431-.805-.521-.786zm10.319-3.445c.223.173.447.342.664.518.205.166.404.34.605.511-.341-1.15-.74-1.43-1.269-1.029zm2.166 4.396l.055-.206-1.482-.406c.38.987.902.806 1.427.612z"/><path d="M35.303 6.644c-.313-.777-.545-1.586-.835-2.372C33.073.498 29.691-.385 26.969.137c-3.033.582-5.194 2.406-6.804 4.964-.37.587-.739 1.175-1.129 1.748a2.298 2.298 0 0 1-.48.485c-.505.397-.734.916-.58 1.528.103.409-.006.699-.245.994-.674.832-1.511 1.472-2.405 2.042a.662.662 0 0 1-.364.076c-.98-.038-1.495.443-1.7 1.405-.136.638-.354 1.294-.694 1.844a11.926 11.926 0 0 1-3.401 3.546c-.112.078-.252.153-.384.161-1.131.073-1.523.432-1.688 1.561-.166 1.133-.617 2.099-1.594 2.768-.454.311-.89.646-1.329.978-.219.165-.426.213-.715.144-.856-.203-1.698.322-1.777 1.145-.104 1.084-.495 2.072-.848 3.082-.352 1.006-.637 2.034-.799 2.556-.281 3.134 1.25 5.524 3.691 6.261.684.207 1.42.324 2.133.33 1.472.013 2.945-.123 4.417-.113 1.39.009 2.496-.402 3.16-1.699a.602.602 0 0 1 .285-.243 94.937 94.937 0 0 1 2.399-1.007c.814-.324 1.643-.505 2.541-.362.897.143 1.592-.491 1.682-1.403.019-.19.115-.442.26-.54.712-.482 1.44-.94 2.167-1.399.006.277.133.533.652.717l-.888.098.005.222c.271-.017.543-.051.813-.042.145.003.309.05.421.135.049.035-.011.217-.021.332-.009.113-.068.264-.019.331.271.364.083.55-.222.741-.227.143-.424.332-.635.5l.123.156 1.844-.953c-.178-.271-.324-.475-.452-.69a92.291 92.291 0 0 1-.81-1.398c-.085-.149-.229-.313-.217-.462.002-.031.016-.053.02-.084.092-.057.18-.119.271-.176.211-.129.49-.182.743-.205.763-.07 1.303-.48 1.425-1.221.114-.684.465-1.207.938-1.67a6.528 6.528 0 0 1 2.862-1.652c.792-.218 1.276-.852 1.149-1.602-.144-.846.084-1.563.553-2.25.553-.811 1.074-1.645 1.631-2.454.078-.114.264-.199.41-.213 1.079-.107 1.662-1.026 1.35-2.055-.121-.396-.189-.873-.089-1.263.423-1.635.985-3.237.962-4.961-.001-.137.145-.304.266-.409.635-.552.736-1.308.32-2.028a14.754 14.754 0 0 1-.87-1.789zm-5.462 12.104c-.056.083-.118.163-.175.241-.671-.292-.82-.219-1.309.287-.301.311-.693.561-1.087.749-.503.238-.745.554-.603.984.121.369.437.527.85.47.226-.011.433-.071.624-.171-.13.604-.247 1.201-.401 1.787-.025.1-.215.167-.34.227-.295.142-.575.304-.854.465a2.6 2.6 0 0 1 .284-.355c.121-.127.311-.187.471-.277l-.137-.229-1.623.916c-.223.258-.521.594-.809.943-.047.057-.071.178-.041.237.018.035.05.069.087.097-.48.471-.917.988-1.254 1.613-.289.533-.651.821-1.19 1.061-1.778.785-3.381 1.832-4.625 3.364a.533.533 0 0 1-.322.176c-.756.083-1.475.289-2.179.544-.259-.349-.615-.389-1.238-.27l.219.67a109.83 109.83 0 0 1-1.876.776c-.635.257-1.053.74-1.407 1.303-.079.125-.24.275-.37.281-1.5.072-3.002.123-4.504.165-.302.008-.605-.044-.907-.077-1.736-.191-2.364-1.715-2.153-2.912.126-.719.39-1.415.616-2.115a44.4 44.4 0 0 1 .706-2.002.63.63 0 0 1 .296-.323c1.491-.694 2.818-1.644 3.883-2.871.579-.665.871-1.577 1.304-2.371.09-.165.2-.351.352-.446a16.765 16.765 0 0 0 2.921-2.32c.074.171.169.333.278.489-.158.259-.267.534-.284.798a.746.746 0 0 0 .583.801.715.715 0 0 0 .848-.505c.121-.436.366-.69.793-.825a.713.713 0 0 0 .5-.887c-.089-.357-.428-.576-.832-.538-.483.045-.995.383-1.367.821l-.222-.459a13.132 13.132 0 0 0 2.594-3.969c.052-.125.191-.241.318-.307.425-.222.828-.473 1.217-.738a.909.909 0 0 0 .396.53c.407.27.73.663 1.113.974.107.086.368.152.428.094.1-.098.19-.295.176-.428.31-.063.531-.322.587-.743.059-.451.292-.765.673-1 .436-.271.546-.687.306-1.067-.221-.349-.651-.437-1.07-.198-.732.417-1.151 1.038-1.31 1.712a4.881 4.881 0 0 0-.515-.45 12.341 12.341 0 0 0 1.777-1.764c.563-.685.939-1.454.996-2.357a.773.773 0 0 1 .138-.351c.492-.765 1.007-1.517 1.484-2.291.912-1.482 2.1-2.651 3.719-3.331 1.104-.463 2.234-.561 3.385-.149.796.287 1.369.821 1.694 1.584.328.769.586 1.568.88 2.352.092.245.208.486.315.728-.043-.041-.09-.08-.13-.121-.122-.125-.176-.318-.26-.48l-.233.128c.274.533.55 1.065.855 1.655l.048.044c-.033.461-.205.935-.294 1.401a3.022 3.022 0 0 0-.047.475c-.009.28-.058.492-.343.669-.172.106-.234.432-.287.671-.051.227-.057.412-.367.426-.203.008-.36.064-.492.142-.146-.062-.287-.311-.69-1.037-.455.073-.88.222-.476.764.48.64.389 1.103-.268 1.578l1.44-.077a.87.87 0 0 0 .19.104l.256.154-.012-.095c.023.003.04.013.063.015l.234.02c-.095.721-.187 1.417-.282 2.114-.007.052-.035.119-.076.147-.775.543-1.13 1.409-1.636 2.16z"/><path d="M25.425 18.493c-.417-.093-.765.109-.895.546-.149.503-.312.948-.871 1.188a.669.669 0 0 0-.263.209c-.018-.236-.115-.491-.094-.709.004-.047-.318-.124-.462-.178l.12 1.499a.746.746 0 0 0 .286-.176.999.999 0 0 0 .124.601c.231.385.681.525 1.041.272.854-.597 1.354-1.436 1.565-2.367.044-.482-.179-.801-.551-.885zM13.72 28.936c-.343-.161-.715-.045-.937.296a2.335 2.335 0 0 1-.236.318l.131-.558c-.438.188-.63.396-.699.613-.072-.028-.136-.052-.231-.097-.354-.169-.751-.07-.958.237-.212.313-.184.739.138.97.307.219.671.359 1.011.533.951.011 1.871-.535 2.156-1.328.151-.417.003-.805-.375-.984zm6.059-4.884c-.279-.014-.549.137-.671.469-.147.406-.458.616-.824.771-.172.074-.364.105-.527.192-.324.174-.487.446-.394.823.091.37.339.566.716.572.926.014 2.196-.98 2.423-1.889.116-.458-.183-.889-.723-.938zm9.65-14.119c.026.271-.013.547-.012.821.001.425.272.733.668.77.376.036.69-.197.786-.592.031-.125.042-.256.063-.384l.042-.007c-.06-.485-.052-.992-.202-1.447-.105-.323-.377-.641-.658-.847-.331-.242-.815-.084-1.037.231-.228.326-.165.663.147 1.011a.825.825 0 0 1 .203.444zm-.231 4.442c-.371.087-.611.437-.529.863.071.376-.035.556-.416.645a.702.702 0 0 0-.539.854c.09.406.439.641.872.585.849-.111 1.548-.862 1.619-1.855-.02-.103-.039-.334-.107-.55-.139-.437-.494-.639-.9-.542zm-5.825-5.774c.079-.033.263-.078.409-.177.427-.285.833-.598 1.256-.887.313-.212.442-.565.31-.903-.132-.334-.495-.555-.837-.454-.756.223-1.386.655-1.828 1.31-.315.464.021 1.065.69 1.111zM23.79 23.2c-.313-.13-.678-.088-.811.202-.229.496-.619.795-1.01 1.128-.255.218-.27.539-.105.834.163.291.422.437.761.382.26-.042.521-.179.76-.366l.562.36c-.548-.509.3-.654.282-.843l-.339-.049c.198-.284.335-.604.364-.913.005-.327-.134-.599-.464-.735zm-6.177 5.47c-.366-.22-.735-.1-1.047.287-.093.116-.295.14-.438.222-.249.143-.581.244-.705.461-.102.178-.028.555.108.742.15.207.46.299.608.387.867-.01 1.338-.421 1.687-1.01.257-.432.164-.863-.213-1.089zm-6.967 3.575c-.202-.107-.529-.091-.76-.011-.386.134-.739.363-1.107.55-.319.162-.476.424-.429.773s.261.57.619.625c.537.082 1.722-.534 1.957-1.015.037-.076.058-.161.124-.353-.108-.16-.204-.46-.404-.569z"/></g></symbol><symbol viewBox="0 0 96.428 89.246" id="meat"><path d="M38.477 4.84l-.007.001h.007zM17.721 9.871c.049.113.23.272.301.25.135-.042.32-.188.334-.31.122-1.001-.254-1.857-.829-2.757-.152.591-.625.985-.292 1.584.213.382.309.828.486 1.233zm10.474 4.242l.482-1.268c-.321-.069-.321-.069-.354-1.209-.392-.129-.792-.186-.692.412.118.707-.146 1.038-.862 1.146l1.189.536c.08.127.158.255.237.383zm3.789-2.498a.32.32 0 0 0 .222-.098c.267-.301.086-1.386-.22-1.671-.154-.144-.235-.386-.3-.6-.046-.15-.009-.325-.009-.489l-.239.005v1.669c.103.287.234.669.379 1.046.023.062.107.135.167.138zm.233.897c-.639.204-.378-.521-.534-.591l-.919 1.196.056.134 1.397-.739zm-10.99 6.242c-.038-.397-.012-.817-.092-.838-.289-.077-.613-.021-.924-.014l.014.188c.263.176.528.351 1.002.664zm7.2-2.413a75.176 75.176 0 0 1-.084-.253l-1.711.495.105.314 1.69-.556zm2.919 4.417c.202-1.055 0-1.443-.587-1.341.107.23.216.456.317.686.094.216.18.437.27.655zm-7.981-2.597l.028-.26-1.399-.089-.026.245c.438.261.923.135 1.397.104zm-3.929-3.19c.023-.036-.202-.229-.294-.331-.201.479-.355.849-.521 1.242.713.092.598-.574.815-.911z"/><ellipse transform="rotate(-111.493 77.206 47.687)" cx="77.211" cy="47.688" rx="3.916" ry="2.001"/><path d="M85.938 53.005l2.959-1.164a42.195 42.195 0 0 0-2.572-7.988l-.404.943c-.555-.69-1.34-1.301-1.611-2.09-.4-1.171-.438-2.467-.637-3.747.041.003.076.013.117.017a41.43 41.43 0 0 0-1.601-2.441l-.744.93 1.499 1.444-2.603.467c2.771 4.171 4.657 8.715 5.597 13.629z"/><path d="M73.63 28.609c-4.239-2.097-7.98-.293-9.346 4.169-3.016 9.861 5.682 30.517 14.91 35.409 4.231 2.242 7.933.942 10.102-4.42.121-1.253.692-3.572.507-5.832a47.138 47.138 0 0 0-.709-5.173c-1.016.887-2.002 1.339-2.957 1.366.281 1.762.44 3.572.478 5.428.05.178.101.355.161.51l-.15-.01c-.002 1.923-.927 4.756-2.291 5.45-1.328.674-4.39-.318-5.68-1.597-7.786-7.723-12.024-17.133-11.599-28.229.07-1.815.517-3.11 1.282-3.892-.414-.395-.823-.789-1.24-1.186 1.071-.653 1.916-.542 2.579.411.972-.245 2.188-.055 3.614.585.513.409 1.516 1.037 2.308 1.867a45.205 45.205 0 0 1 2.527 2.886c.658-.485 1.681-.768 3.231-.958a43.82 43.82 0 0 0-2.197-2.672c-1.501-1.687-3.497-3.106-5.53-4.112zM52.9 42.562c.029.125.06.249.09.374.611-.077 1.223-.157 1.834-.235l-.42-.678-1.504.539zM40.594 54.901c-.063-.173-.346-.263-.467-.347-.846.59-1.217 1.316-1.041 1.978.049.187.347.472.476.444.585-.123 1.254-1.475 1.032-2.075zM19.62 61.155c.175.075.457-.015.65-.108.078-.039.086-.301.061-.449-.081-.48-.191-.955-.318-1.562-.291.312-.488.511-.672.722-.362.413-.23 1.181.279 1.397zm-8.968 1.378c.228.166.46.33.859.617-.137-1.3-.552-1.799-1.498-1.979-.132-.025-.376.083-.424.195-.051.113.024.357.128.453.287.263.618.48.935.714zm17.84 7.144c-.01-.261.081-.627-.055-.757-.19-.183-.549-.188-.835-.269l-.178.312.941.95.127-.236zm-4.121-13.554c-.025.103.199.384.275.371.192-.032.421-.146.53-.3.141-.2.179-.472.258-.703-.235.039-.503.026-.706.134-.166.089-.311.31-.357.498zm20.672-6.189l.411.53 9.854-11.57-1.776-1.666-.283.095c-5.436 1.833-7.798 6.462-9.381 10.704l-.097.261.725.937h-.001c.186.446.347.668.548.709zm13.281 21.759l-1.592.207-.494-.249.314 1.639c.381-.136.381-.136 1.152 1.035.492-.118.947-.318.457-.877-.579-.663-.517-1.179.163-1.755zM56.219 57.87c.249.023.729-.19 1.071-.378.137-.075.251-.395.267-.564.054-.549.057-1.081.085-1.766-.579.487-.968.802-1.339 1.127-.729.634-.811 1.512-.084 1.581zm-15.242 3.651c-.2.02-.627.244-.747.396-.125.156-.098.422.031.499.357.208.799.346 1.213.507.298.115.605.225 1.129.42.275-1.515-.194-1.963-1.626-1.822zm.628 5.73c.485-.947.485-.947-.847-1.172-.292 1.263-.292 1.263.847 1.172zm13.204 2.43l1.47-1.623-.313-.261-1.408 1.674c.083.071.167.141.251.21zm10.297-6.062c-.806.363-.255.985-.264 1.479-.001.051.358.109.522.156l-.258-1.635zM83.958 76.7l-1.228-.406c.354.84.61.905 1.228.406zm-25.655 4.133l1.801.561.066-.246-1.822-.502-.045.187zm-6.949-.218l.043-.995c-.504.376-.821.615-1.069.803l1.026.192z"/><path d="M78.563 24.417a1.254 1.254 0 0 1-.305.665c-.102.109-.576.005-.771-.142-.711-.533-1.318-1.217-2.065-1.675a1.654 1.654 0 0 1-.652-.702c-2.858-1.001-6.935-1.46-10.011-.271l-.407.159C50.999 27.708 41.874 36.059 36.453 47.98c-.959 2.11-1.996 4.209-3.181 6.194.24.004.481.013.723.016-.284.188-.585.248-.889.264-2.709 4.465-6.206 8.318-11.381 10.357-1.17.46-2.42.823-3.714 1.079-1.438.283-4.13.624-6.334-.126-.088-.173-.32-.296-.838-.559l.021.301c-3.879-1.289-6.788-.599-8.956 2.124-2.577 3.239-2.535 6.777.124 10.23.95 1.232 1.616 2.724 1.782 3.991.563 4.308 3.031 6.841 7.136 7.327 3.995.476 6.835-1.563 8.252-5.925.375-1.153.979-2.752 1.889-3.302 8.808-5.333 17.519-6.339 25.977-3.032-.078.366.083.818-.105 1.189.531-.25.806-.553.854-.902.638.262 1.276.51 1.915.742.026-.64.093-1.281.016-1.906-.121-.98.493-1.423 1.097-1.986l-.064-.021c-2.474-.805-5.033-1.637-7.626-2.138l-.53-.102c-7.392-1.424-7.392-1.424-9.713-7.974-.336-.949.237-2.565.831-3.66 1.787-3.3 3.718-6.598 5.586-9.787.692-1.182 1.384-2.363 2.07-3.548a48.503 48.503 0 0 1 3.551-5.295l-1.019-.498c.208-.168.61-.581.672-.533.237.172.57.259.878.372a43 43 0 0 1 4.938-5.24c.101-.824.203-1.648.298-2.471l.502.083c.006.571.08 1.155.005 1.711a47 47 0 0 1 6.374-4.555c-.766 5.886-.645 11.38.352 16.519.307-.338.637-.682 1.021-.793.376-.109.893.256 1.379.42-.777 1.52-.513 2.715.672 3.545.212.146.584.08.883.085.341.007.68.005 1.021.01-1.627-4.965-2.162-10.055-1.572-15.234.205-1.801.646-3.402 1.281-4.768a2.918 2.918 0 0 0-.078-.288l.394-.308c.268-.498.561-.96.884-1.381-.042-.389-.35-.75-.93-1.053-.516-.267-1.04-.525-1.587-.708-.974-.327-.981-.841-.358-1.644.967 1.419 1.989 2.268 3.696 1.761a.73.73 0 0 1 .694.13c.529-.405 1.09-.754 1.704-.996 3.004-1.183 6.716-.198 10.184 2.703 10.96 9.167 15.76 20.904 14.268 34.885-.437 4.079-2.146 6.818-4.946 7.921-2.496.982-5.822.622-9.621-1.041-.398-.387-.91-.844-1.492-1.362-1.646-1.468-3.902-3.478-5.668-5.813-2.945-3.895-5.141-7.899-6.586-11.993a1.416 1.416 0 0 0-.225.269c-.068.108-.125.225-.187.337-.157.016-.313.035-.444.104-.051.027-.092.082-.136.129.105-.235.232-.517.415-.92-1.57 1.318-2.064-.316-3.012-.613-1.721-.539.329-2.003-.789-3.016l-.675.494c.544 2.533 1.285 4.986 2.269 7.346.177.049.336.113.444.211.112.102.096.482.001.764 2.158 4.82 5.269 9.273 9.31 13.397-.076-.06-.149-.124-.229-.18-.125-.086-.417-.135-.478-.067-.113.132-.213.403-.148.54.518 1.126 1.465 1.778 2.646 2.348-.112-.359-.107-.719-.168-1.04a62.174 62.174 0 0 0 4.445 3.815c-7.755 2.089-14.853 2.115-22.104.128l.07-.692-.146-.104-.39.664c-.453-.13-.904-.239-1.359-.385l-.788-.254c.208 1.481.168 2.845-.403 4.143 7.225 2.378 14.58 2.879 22.225 1.502a.13.13 0 0 1-.008-.017l.367-.145.031.089a55.622 55.622 0 0 0 7.734-2.053l-.219-.027c.64-.71 1.127-1.279 1.651-1.82.161-.166.496-.394.615-.332.292.154.659.423.726.71.037.154.028.308 0 .457l.005-.002a67.147 67.147 0 0 0 2.065-.854c2.291-.99 4.235-2.773 6.115-4.5.844-.772 1.715-1.572 2.598-2.279l.117-.095.047-.144c4.62-14.431-4.157-36.729-16.614-44.488zm-47.11 34.791c.661.428.661.428.339 1.471-.733-.809-.733-.809-.339-1.471zm-1.05 3.182c.275.417.437.656.593.9.216.336.452.662.63 1.018.064.129.046.389-.043.479-.087.088-.358.103-.476.03-.834-.515-1.047-1.142-.704-2.427zm-.959 3.371l-.009-.004.004-.003.005.007zm-12.111 1.255l1.511 1.189-.112.163-1.551-1.141c.052-.07.102-.14.152-.211zM4.015 75.167c-.082.044-.341-.11-.428-.238-.313-.456-.535-.981-.885-1.402-.551-.659-.061-1.255-.012-2.017.918.973 1.582 1.938 1.665 3.198.01.153-.183.376-.34.459zm2.087 6.948l.349-1.65c.138.104.459.291.439.338-.187.466.111 1.259-.788 1.312zm2.489 2.343l-.062-.229c.381-.08.768-.227 1.141-.198.104.008.169.528.31 1.011-.656-.277-1.022-.429-1.389-.584zm7.732-2.994l-.203-.362c.664-.335 1.328-.671 1.99-1.011l.164.293-1.951 1.08zm5.717-6.679l-1.546 1.237a4.96 4.96 0 0 0-.101-.151c.071-.139.143-.281.213-.423a23.8 23.8 0 0 0-1.563.851c-.548.327-1.075.776-1.557 1.287l-.02.111-.043-.047c-.942 1.02-1.688 2.294-1.967 3.479-.754 3.2-2.123 4.494-4.264 3.83-.92-.286-1.671-1.873-2.334-3.273a27.453 27.453 0 0 0-.765-1.535 20.96 20.96 0 0 1-1.768-4.142 28.535 28.535 0 0 0-.536-1.558c-.535-1.464-1.141-3.123-.695-3.984.374-.724.86-1.207 1.443-1.437 1.337-.526 3.029.297 4.214 1.08.586.387 1.331.665 2.127.839-.582.302-1.339.352-1.782.976.381-.142.778-.255 1.14-.437.298-.147.529-.365.787.066s.538.293.809-.033c.264-.315.381-.613.313-.907l.227-.432c.078.029.155.061.232.091-.05.037-.104.069-.144.116l.462.063-.192.704c.679-.001 1.346-.074 1.941-.249 1.679-.492 3.717-1.363 5.595-2.203 1.494-.668 3.036-1.356 4.597-1.883.757-.256 1.976-.081 2.839.349l-.292-.738.332.128.183-.19c.166.185.354.348.532.52.163-.224.373-.428.476-.677.105-.258.107-.559.173-.961.295.425.519.744.721 1.034-.777.97.585.715.63 1.276-.088.054-.226.139-.389.237.168.361.602.767-.06 1.056l-.689-.858-.308.146c.106.444.094.987.356 1.301.221.264.761.261 1.216.393.038.65-.554.322-.94.499-.379-.11-.779-.206-1.255-.333.03.356.076.667.077.965l-.251.149c-.224.135-.425.252-.634.375-.004-.005-.01-.008-.015-.013-.27-.303-.509-.633-.76-.949a23.89 23.89 0 0 1-.165.134c.154.469.285.837.427 1.123-.289.16-.573.313-.86.439-.134.059-.272.114-.407.173.49-.089.98-.176 1.465-.287.042.054.09.094.138.136-.576.088-1.151.184-1.739.209-.842.36-1.7.709-2.539 1.041a78.828 78.828 0 0 0-3.241 1.347c.051-.016.096-.028.156-.06zm9.205-2.542c.036-.013.063-.018.101-.03-.007.014-.017.025-.024.039l-.077-.009zm-3.807 4.097c-.19-.85.192-1.333 1.212-1.41-.502.454-.23 1.425-1.212 1.41zm5.653-5.211c.583.025 1.182-.298 1.773-.469.042.115.082.23.123.346l-2.327.635a.438.438 0 0 1-.026-.355.98.98 0 0 0 .054-.233c.133.042.268.071.403.076zm51.906-36.564c-.099-.849-.19-1.645-.313-2.685.261.085.845.206.839.285-.046.808.817 1.859-.526 2.4zM61.991 52.291a.411.411 0 0 0 .037.072l-.056-.031.019-.041zm28.353 18.508c-.466-.479-.941-.531-1.396-.196-.081.06-.104.207-.143.316-.124.344-.246.688-.363 1.034-.053.161-.094.328-.154.54a299.63 299.63 0 0 0-1.307-.528l.025-.131c.181.032.365.05.539.104.233.072.412.088.48-.213.012-.056.116-.092.179-.138.063-.045.185-.095.181-.135a.52.52 0 0 0-.117-.277c-.115-.143-.252-.268-.381-.401l.111-.099c.108.102.218.202.443.414-.291-.747.376-.725.604-1.038.417-.569.7.374 1.216.087l-.199-.633c.032-.03.064-.061.098-.09.097.112.217.212.287.341.1.186.233.394.225.586-.007.154-.207.298-.328.457zm3.012-18.809c.474.124.535.275.244.758l-.244-.758zm.372 14.15l.72-.724c.035.097.137.298.112.315-.249.177-.357.679-.832.409zm1.013 2.763l-.516-.753c.015-.045.028-.091.044-.137.221.083.465.136.646.272.05.039-.088.325-.174.618zm.203-6.983c-.056-.004-.138-.169-.14-.261-.01-.336.049-.676.01-1.004-.064-.517.381-.658.654-1.031.148.797.17 1.506-.201 2.175-.044.081-.215.132-.323.121z"/><path d="M23.792 35.739l-.028.26c-.399.027-.804.106-1.184-.021l.37.626c.071.223.281.849.497 1.141l-.004.003.788 1.101.346.424c1.129 1.266 2.626 2.044 4.712 2.45 1.172.229 2.083.519 2.927.935l.31.106c.363.08.631.198.844.372l.97.431.173-.511c.091-.269.244-.528.405-.803.244-.414.495-.842.592-1.378l.056-.311-.256-.184c-1.081-.776-2.304-1.142-3.487-1.496-.33-.099-.66-.197-.983-.304a5.093 5.093 0 0 0-.175-.056c.259-.252.497-.517.712-.802l-.217-.469c.198-.035.349-.008.459.077.078-.128.171-.241.236-.383.25-.554.424-1.115.536-1.741 1.09 1.032 2.422 1.911 4.149 1.911a5.58 5.58 0 0 0 1.282-.156l.154-.037.105-.119a40.48 40.48 0 0 0 3.19-4.113l.091-.135-.006-.163c-.042-1.233-.479-2.303-1.005-3.386 1.398.212 2.736.037 4.101-.545 2.024-.864 3.344-2.338 3.924-4.38.103-.363.185-.718.246-1.065l.235-.266-.202.068c.308-2-.088-3.746-1.199-5.308a5.834 5.834 0 0 0-.9-.998l-2.62-1.213-.781 1.609c-.345-.405-.67-.787-.797-1.225l-.129-.389-.407.051c-.794.099-1.479-.018-2.017-.4a7.826 7.826 0 0 0 1.919-.135l.442-.088-.042-.449c-.025-.27-.044-.542-.064-.815l-.032-.434a7.916 7.916 0 0 1 1.952.655l.271.131.242-.177c1.045-.762 1.706-1.798 2.195-2.811.054.098.104.199.155.303.088.177.176.351.278.514 1.382 2.186 3.3 3.39 5.403 3.39 1.408 0 2.844-.557 4.152-1.61.576-.466.922-1.08 1.223-1.702.404 1.083.605 1.987.642 2.844.081 1.955.669 3.77 1.8 5.551l.197.312.629-.171c.758-.204 1.542-.415 2.278-.815l.526-.287-.377-.467c-1.045-1.293-1.549-2.483-1.582-3.739l.048-.042-.058-.422c.057-.828-.161-1.58-.374-2.313l-.038-.094c-.107-.205-.145-.332-.133-.451l.012-.107-.033-.102a8.667 8.667 0 0 1-.176-.636c-.11-.436-.224-.886-.457-1.328l-.115-.221c-.644-1.227-1.309-2.496-2.295-3.575l-.178-.125c-.082-.034-.154-.114-.318-.362-.739-.8-1.776-1.767-3.217-2.139l-.684-.197c-.17-.021-.34-.045-.51-.069-.61-.087-1.209-.183-1.922-.116l-.412.047-.378.064-.883.564.617.43c.11.076.23.137.35.197.157.078.257.129.306.2l.074.084c.293.266.61.473.918.673.273.179.533.349.764.551a6.122 6.122 0 0 1 1.979 3.265c.269 1.102-.022 1.917-.866 2.422-1.14.684-2.156.633-3.029-.174-1.146-1.057-1.902-2.446-2.311-4.249-.116-.512-.232-1.106-.139-1.675l.023-.144-.197-.461c-.453-1.08-.922-2.197-2.107-2.893-.217-.126-.417-.271-.619-.415C45.159.78 44.598.38 43.818.225c-.63-.123-1.239-.142-1.828-.16-.337-.01-.673-.021-.957-.043-.553-.116-1.083.223-1.38.472-.222.186-.329.396-.316.626.019.344.286.521.445.627l.037.024.016.515.617-.19a.475.475 0 0 1 .107.065c1.006.728 1.865 1.655 2.603 2.793.531 1.024.766 1.99.719 2.952-.086 1.693-.715 2.741-1.977 3.298-.463.205-.924.32-1.408.353l-1.058.072.337.357-3.824.498c.048-1.191.277-1.807.787-2.189l.371-.278-.249-.389c-.348-.547-.598-1.176-.762-1.918-.068-.317-.112-.638-.156-.958l-.05-.356-.179-.377-.717-.115-.688 1.342c-.499 1.621-.51 3.298-.014 5.195.025.061.056.12.088.179.015.03.036.07.046.05l-.05.175.088.175c.11.219.221.439.321.665.937 2.09 2.436 4.56 5.839 5.116l1.994-.056.142-.025c.158-.052.31-.083.453-.093l.131.18.087-.179c.339.031.645.195.935.505.046.048.096.094.114.108.9.976 1.099 2.13.627 3.819-.035.28-.13.515-.328.768a3.83 3.83 0 0 1-.386.512l-1.239 1.406 2.033-.69c-1.111.787-2.121.984-3.051.571l-.22-.098-.213.111c-.263.135-.512.113-.851-.065l-.098-.04c-.546-.153-.957-.569-1.428-1.045-.639-.648-.909-1.496-1.195-2.394-.167-.523-.339-1.064-.592-1.579l-.113-.231-.819-.132-.151.366c-.52 1.258-.724 2.579-.922 3.857l-.074.516-.001.23.33 2.438.052.175c.204.403.413.803.622 1.204.454.869.922 1.768 1.327 2.669.28.623.218 1.172-.183 1.631-.343.392-.812.373-1.588.265-.522-.073-.901-.449-1.127-.751-.511-.684-.759-1.674-.626-2.59l.002-.251-.256-.025.248-.034-.062-.44c-.529-2.125-2.036-3.475-3.176-4.338a7.913 7.913 0 0 1-.465-.392l-.171-.1c-.138-.05-.866-.4-.995-.497l-.359-.147c-.247-.082-1.153-.191-1.433-.148l-.982-.054c-.029 0-2.984.325-3.168 1.162l-.073.332.281.19a10.27 10.27 0 0 1 1.82 1.538c.227.206.449.411.669.617.272.474.457.744.595.896.051.098.129.239.219.402.197.354.527.946.594 1.16l.047.105c.1.168.203.36.306.547.145-.185.184-.445.125-.802-.1-.597.3-.541.692-.412.033 1.14.033 1.14.354 1.209l-.482 1.268-.237-.384a.163.163 0 0 1-.023-.011c.334.745.614 1.575.687 2.482.111 1.346-.493 2.246-1.62 2.431l-.792-.035-.065.012c-.358.066-.67-.085-1.052-.261-.157-.072-.314-.144-.475-.204l-3.079-2.246.546 1.919c.432.031.868.059 1.304.086zm8.045-9.138l.239-.005c0 .164-.037.339.009.489.065.213.146.456.3.6.306.285.487 1.37.22 1.671a.316.316 0 0 1-.222.098c-.06-.003-.144-.076-.167-.137-.146-.377-.277-.76-.379-1.046v-1.67zm.246 3.158c.156.069-.105.794.534.591l-1.397.739-.056-.134.919-1.196z"/></symbol></svg>